<svg xmlns="http://www.w3.org/2000/svg" version="1.1" xmlns:xlink="http://www.w3.org/1999/xlink" xmlns:svgjs="http://svgjs.dev/svgjs" width="2000" height="388" viewBox="0 0 2000 388"><g transform="matrix(1,0,0,1,-1.2121212121212466,-1.0332281983149585)"><svg viewBox="0 0 396 77" data-background-color="#ffffff" preserveAspectRatio="xMidYMid meet" height="388" width="2000" xmlns="http://www.w3.org/2000/svg" xmlns:xlink="http://www.w3.org/1999/xlink"><g id="tight-bounds" transform="matrix(1,0,0,1,0.2400000000000091,0.20504786409858866)"><svg viewBox="0 0 395.52 76.58990427180284" height="76.58990427180284" width="395.52"><g><svg viewBox="0 0 553.5377559322694 107.18902644033444" height="76.58990427180284" width="395.52"><g><rect width="6.9945130415807855" height="93.0729607296681" x="413.8302435643476" y="7.058032855333174" fill="#39b980" opacity="1" stroke-width="0" stroke="transparent" fill-opacity="1" class="rect-yte-0" data-fill-palette-color="primary" rx="1%" id="yte-0" data-palette-color="#39b980"></rect></g><g transform="matrix(1,0,0,1,0,14.814112916138846)"><svg viewBox="0 0 395.52 77.56080060805675" height="77.56080060805675" width="395.52"><g id="textblocktransform"><svg viewBox="0 0 395.52 77.56080060805675" height="77.56080060805675" width="395.52" id="textblock"><g><svg viewBox="0 0 395.52 77.56080060805675" height="77.56080060805675" width="395.52"><g transform="matrix(1,0,0,1,0,0)"><svg width="395.52" viewBox="2.1 -38 197.33 38.7" height="77.56080060805675" data-palette-color="#39b980"><path d="M13.8 0.65L13.8 0.65Q9.6 0.65 7.03-1.11 4.45-2.88 3.28-5.79 2.1-8.7 2.1-12.15L2.1-12.15Q2.1-15.78 3.44-18.81 4.78-21.85 7.36-23.68 9.95-25.5 13.7-25.5L13.7-25.5Q19.3-25.5 21.53-22.26 23.75-19.03 23.75-13.1L23.75-13.1Q23.75-12.58 23.73-11.78 23.7-10.98 23.65-10.4L23.65-10.4 8.65-10.4Q8.8-7.45 10.31-5.78 11.83-4.1 14.85-4.1L14.85-4.1Q16.4-4.1 18.18-4.79 19.95-5.48 20.8-6.45L20.8-6.45 22.8-1.7Q21.8-1.03 19.64-0.19 17.48 0.65 13.8 0.65ZM8.6-14.3L8.6-14.3 17.4-14.3Q17.4-16.93 16.94-18.31 16.48-19.7 15.68-20.23 14.88-20.75 13.85-20.75L13.85-20.75Q11.3-20.75 10.03-18.86 8.75-16.98 8.6-14.3ZM38 0.7L38 0.7Q34.97 0.7 32.75-0.93 30.52-2.55 29.31-5.5 28.1-8.45 28.1-12.4L28.1-12.4Q28.1-18.55 30.61-22.03 33.12-25.5 38.1-25.5L38.1-25.5Q40.65-25.5 42.41-24.24 44.17-22.98 44.7-20.6L44.7-20.6 44.25-24.25 44.25-38 50.15-38 50.15 0 44.7 0 44.7-5.1Q44.02-2.53 42.32-0.91 40.62 0.7 38 0.7ZM39.45-4.25L39.45-4.25Q41.25-4.25 42.67-6.14 44.1-8.03 44.1-12.3L44.1-12.3Q44.1-16.2 43-18.32 41.9-20.45 39.6-20.45L39.6-20.45Q38.42-20.45 37.26-19.73 36.1-19 35.32-17.24 34.55-15.48 34.55-12.4L34.55-12.4Q34.55-8.28 35.97-6.26 37.4-4.25 39.45-4.25ZM64.9 0.6L64.9 0.6Q61.12 0.6 59.33-1.81 57.55-4.23 57.55-8.45L57.55-8.45 57.55-24.9 63.8-24.9 63.8-9Q63.8-6.95 64.55-5.65 65.3-4.35 67.09-4.35L67.09-4.35Q68.87-4.35 70.06-5.65 71.25-6.95 71.25-9L71.25-9 71.25-24.9 77.5-24.9 77.5 0 71.84 0 71.72-3.23Q70.8-1.75 69.21-0.58 67.62 0.6 64.9 0.6ZM106.79 0.7L106.79 0.7Q104.09 0.7 102.38-1 100.67-2.7 100.09-4.95L100.09-4.95 100.09 0 94.59 0 94.59-38 100.59-38 100.59-24.9 100.09-20.6Q100.49-22.3 101.68-23.4 102.87-24.5 104.39-25.03 105.92-25.55 107.34-25.55L107.34-25.55Q111.99-25.55 114.37-22.26 116.74-18.98 116.74-12.55L116.74-12.55Q116.74-8.08 115.4-5.14 114.07-2.2 111.8-0.75 109.54 0.7 106.79 0.7ZM105.34-4.25L105.34-4.25Q106.57-4.25 107.68-5.06 108.79-5.88 109.49-7.7 110.19-9.53 110.19-12.55L110.19-12.55Q110.19-16.75 108.78-18.6 107.37-20.45 105.44-20.45L105.44-20.45Q103.12-20.45 101.9-18.06 100.69-15.68 100.69-12.15L100.69-12.15Q100.69-8.63 101.93-6.44 103.17-4.25 105.34-4.25ZM129.39-28.95L122.39-28.95 122.39-35.6 129.39-35.6 129.39-28.95ZM129.14 0L122.64 0 122.64-24.9 129.14-24.9 129.14 0ZM142.79 0L136.69 0 136.69-38 142.79-38 142.79 0ZM157.08-28.95L150.08-28.95 150.08-35.6 157.08-35.6 157.08-28.95ZM156.83 0L150.33 0 150.33-24.9 156.83-24.9 156.83 0ZM170.68 0L164.28 0 164.28-24.9 170.03-24.9 170.18-21.6Q171.16-23.1 172.89-24.3 174.63-25.5 177.53-25.5L177.53-25.5Q180.06-25.5 181.73-24.38 183.41-23.25 184.26-21.2L184.26-21.2Q185.21-22.78 186.99-24.14 188.78-25.5 191.98-25.5L191.98-25.5Q195.73-25.5 197.58-23.1 199.43-20.7 199.43-16.45L199.43-16.45 199.43 0 193.08 0 193.08-15.8Q193.08-17.88 192.28-19.16 191.48-20.45 189.68-20.45L189.68-20.45Q187.93-20.45 186.51-19.16 185.08-17.88 185.08-15.8L185.08-15.8 185.08 0 178.68 0 178.68-15.8Q178.68-17.88 177.77-19.21 176.86-20.55 175.08-20.55L175.08-20.55Q173.28-20.55 171.98-19.21 170.68-17.88 170.68-15.8L170.68-15.8 170.68 0Z" opacity="1" transform="matrix(1,0,0,1,0,0)" fill="#39b980" class="wordmark-text-0" data-fill-palette-color="primary" id="text-0"></path></svg></g></svg></g></svg></g></svg></g><g transform="matrix(1,0,0,1,439.135000170276,0)"><svg viewBox="0 0 114.40275576199348 107.18902644033444" height="107.18902644033444" width="114.40275576199348"><g><svg xmlns="http://www.w3.org/2000/svg" xmlns:xlink="http://www.w3.org/1999/xlink" version="1.1" x="0" y="0" viewBox="5 7.838 90 84.325" enable-background="new 0 0 100 100" xml:space="preserve" height="107.18902644033444" width="114.40275576199348" class="icon-icon-0" data-fill-palette-color="accent" id="icon-0"><path d="M92.054 7.838H7.944C6.1 7.838 5 8.937 5 10.783V72.637C5 74.484 6.836 75.582 8.682 75.582H61L60.821 71.389H9.888V25.167H89.473V71.39H86.263A3.8 3.8 0 0 1 84.471 73.49L80.726 75.512 80.764 75.583H92.054C93.89 75.583 95 74.484 95 72.638V10.783C95 8.937 93.89 7.838 92.054 7.838M23.28 9.737C24.453 9.737 25.402 10.686 25.402 11.86S24.453 13.995 23.28 13.995C22.105 13.995 21.156 13.034 21.156 11.86S22.105 9.737 23.28 9.737M17.484 9.737C18.659 9.737 19.608 10.686 19.608 11.86S18.659 13.995 17.484 13.995C16.311 13.995 15.351 13.034 15.351 11.86S16.312 9.737 17.484 9.737M9.557 11.86A2.129 2.129 0 0 1 13.815 11.86 2.14 2.14 0 0 1 11.68 13.995 2.13 2.13 0 0 1 9.557 11.86M89.473 21.764H9.888V16.663H89.473zM81.138 82.055L84.725 88.728A1.1 1.1 0 0 1 84.285 90.216L80.911 92.026A1.1 1.1 0 0 1 80.386 92.163C79.996 92.163 79.619 91.953 79.422 91.587L74.288 82.056 71.7 77.26 65.535 80.592A1.1 1.1 0 0 1 65.021 80.72 1.104 1.104 0 0 1 63.919 79.67L62.972 57.435A1.1 1.1 0 0 1 63.53 56.438 0.9 0.9 0 0 1 64.048 56.269C64.272 56.269 64.489 56.355 64.681 56.489L83.271 69.209C83.583 69.429 83.761 69.792 83.744 70.173 83.728 70.563 83.508 70.901 83.17 71.078L77.011 74.4zM60.434 47.798L42.234 58.155C40.838 58.949 39.697 58.286 39.697 56.68V36.027C39.697 34.422 40.839 33.758 42.234 34.552L60.434 44.909C61.829 45.704 61.829 47.003 60.434 47.798" fill="#39b980" data-fill-palette-color="accent"></path></svg></g></svg></g></svg></g><defs></defs></svg><rect width="395.52" height="76.58990427180284" fill="none" stroke="none" visibility="hidden"></rect></g></svg></g></svg>